<svg xmlns="http://www.w3.org/2000/svg" xmlns:xlink="http://www.w3.org/1999/xlink" width="82" height="48" viewBox="0 0 82 48"><defs><style>.a,.b,.d{fill:#fff;}.a{font-size:8px;font-family:SegoeUI, Segoe UI;letter-spacing:0.15em;}.b{opacity:0.7;}.c{fill:#ff7272;}.d{font-size:10px;font-family:Tahoma-Bold, Tahoma;font-weight:700;}.e{filter:url(#c);}.f{filter:url(#a);}</style><filter id="a" x="35" y="0" width="38" height="32" filterUnits="userSpaceOnUse"><feOffset dy="3" input="SourceAlpha"/><feGaussianBlur stdDeviation="3" result="b"/><feFlood flood-opacity="0.161"/><feComposite operator="in" in2="b"/><feComposite in="SourceGraphic"/></filter><filter id="c" x="41.046" y="1" width="25" height="42" filterUnits="userSpaceOnUse"><feOffset dy="3" input="SourceAlpha"/><feGaussianBlur stdDeviation="3" result="d"/><feFlood flood-opacity="0.161"/><feComposite operator="in" in2="d"/><feComposite in="SourceGraphic"/></filter></defs><g transform="translate(1 6)"><text class="a" transform="translate(40 40)"><tspan x="-40.35" y="0">RECOMENDAÇÕES</tspan></text><g transform="translate(17.476)"><path class="b" d="M20,2H4A2,2,0,0,0,2.01,4L2,22l4-4H20a2.006,2.006,0,0,0,2-2V4A2.006,2.006,0,0,0,20,2ZM8,14H6V12H8Zm0-3H6V9H8ZM8,8H6V6H8Zm7,6H10V12h5Zm3-3H10V9h8Zm0-3H10V6h8Z" transform="translate(-2 5)"/><g class="f" transform="matrix(1, 0, 0, 1, -18.48, -6)"><rect class="c" width="20" height="14" rx="7" transform="translate(44 6)"/></g><g class="e" transform="matrix(1, 0, 0, 1, -18.48, -6)"><text class="d" transform="translate(57.05 17)"><tspan x="-6.367" y="0">9</tspan><tspan x="0" y="12"></tspan></text></g></g></g></svg>