<svg xmlns="http://www.w3.org/2000/svg" xmlns:xlink="http://www.w3.org/1999/xlink" width="41" height="39" viewBox="0 0 41 39"><defs><style>.a{fill:#fff;opacity:0.9;}.b{filter:url(#a);}</style><filter id="a" x="0" y="0" width="41" height="39" filterUnits="userSpaceOnUse"><feOffset dy="3" input="SourceAlpha"/><feGaussianBlur stdDeviation="3" result="b"/><feFlood flood-opacity="0.161"/><feComposite operator="in" in2="b"/><feComposite in="SourceGraphic"/></filter></defs><g class="b" transform="matrix(1, 0, 0, 1, 0, 0)"><path class="a" d="M3,4V1H5V4H8V6H5V9H3V6H0V4Zm3,6V7H9V4h7l1.83,2H21a2.006,2.006,0,0,1,2,2V20a2.006,2.006,0,0,1-2,2H5a2.006,2.006,0,0,1-2-2V10Zm7,9a5,5,0,1,0-5-5A5,5,0,0,0,13,19ZM9.8,14A3.2,3.2,0,1,0,13,10.8,3.2,3.2,0,0,0,9.8,14Z" transform="translate(9 5)"/></g></svg>