<svg xmlns="http://www.w3.org/2000/svg" width="17.996" height="20" viewBox="0 0 17.996 20"><defs><style>.a{fill:#fff;}</style></defs><path class="a" d="M17.81,4.47a.465.465,0,0,1-.23-.06A11.442,11.442,0,0,0,12.01,3,11.441,11.441,0,0,0,6.44,4.41a.5.5,0,0,1-.48-.88,12.724,12.724,0,0,1,12.08-.01.506.506,0,0,1-.23.95ZM3.5,9.72a.521.521,0,0,1-.29-.09.5.5,0,0,1-.12-.7A10.339,10.339,0,0,1,6.84,5.66a11.543,11.543,0,0,1,10.31-.01A10.378,10.378,0,0,1,20.9,8.9a.5.5,0,0,1-.82.58,9.388,9.388,0,0,0-3.39-2.94,10.537,10.537,0,0,0-9.4.01,9.487,9.487,0,0,0-3.4,2.96.436.436,0,0,1-.39.21ZM9.75,21.79a.469.469,0,0,1-.35-.15A10.109,10.109,0,0,1,7.39,19a8.877,8.877,0,0,1-1.05-4.34A5.538,5.538,0,0,1,12,9.27a5.538,5.538,0,0,1,5.66,5.39.5.5,0,1,1-1,0A4.536,4.536,0,0,0,12,10.27a4.536,4.536,0,0,0-4.66,4.39,7.834,7.834,0,0,0,.93,3.85,9.465,9.465,0,0,0,1.85,2.42.513.513,0,0,1,0,.71.548.548,0,0,1-.37.15Zm7.17-1.85a5.385,5.385,0,0,1-3.1-.89,5.324,5.324,0,0,1-2.38-4.39.5.5,0,0,1,1,0,4.3,4.3,0,0,0,1.94,3.56,4.385,4.385,0,0,0,2.54.71,6.609,6.609,0,0,0,1.04-.1.5.5,0,0,1,.17.99,6.829,6.829,0,0,1-1.21.12ZM14.91,22a.585.585,0,0,1-.13-.02,7.8,7.8,0,0,1-3.72-2.1,7.3,7.3,0,0,1-2.17-5.22,3.016,3.016,0,0,1,3.08-2.94,3.016,3.016,0,0,1,3.08,2.94,2.085,2.085,0,0,0,4.16,0,7.053,7.053,0,0,0-7.25-6.83,7.3,7.3,0,0,0-6.61,4.03,6.433,6.433,0,0,0-.59,2.8,9.937,9.937,0,0,0,.67,3.61.488.488,0,0,1-.29.64.5.5,0,0,1-.64-.29,11.141,11.141,0,0,1-.73-3.96,7.513,7.513,0,0,1,.68-3.24,8.3,8.3,0,0,1,7.51-4.6,8.055,8.055,0,0,1,8.25,7.83,3.083,3.083,0,0,1-6.16,0,2.014,2.014,0,0,0-2.08-1.94,2.014,2.014,0,0,0-2.08,1.94,6.3,6.3,0,0,0,1.87,4.51,6.8,6.8,0,0,0,3.27,1.85.5.5,0,0,1,.35.61.488.488,0,0,1-.47.38Z" transform="translate(-2.997 -2)"/></svg>