<svg xmlns="http://www.w3.org/2000/svg" width="95.788" height="31.304" viewBox="0 0 95.788 31.304">
  <g id="Group_3154" data-name="Group 3154" transform="translate(-635.504 -151)">
    <g id="Group_3153" data-name="Group 3153" transform="translate(-269.753 -368.622)">
      <path id="Path_5872" data-name="Path 5872" d="M913.987,521.145c.952,0,1.905,0,2.857,0,.511,0,.782.229.781.628s-.268.625-.785.627c-1.673.005-3.347,0-5.02,0a4.662,4.662,0,0,0-4.575,3.329,5.179,5.179,0,0,0-.215,1.445c-.026,1.632-.01,3.265-.011,4.9a2.76,2.76,0,0,1-.015.407.564.564,0,0,1-.547.513.558.558,0,0,1-.637-.4,1.55,1.55,0,0,1-.06-.481c0-1.647-.013-3.293,0-4.939a5.942,5.942,0,0,1,6.023-6.034C912.518,521.14,913.253,521.146,913.987,521.145Z" fill="#000000" stroke="#000000" stroke-width="1"/>
      <path id="Path_5873" data-name="Path 5873" d="M926.786,521.144c.721,0,1.442-.005,2.163,0a5.969,5.969,0,0,1,6.07,6.023c.02,1.646.01,3.293.006,4.939a1.619,1.619,0,0,1-.056.482.557.557,0,0,1-.629.408.571.571,0,0,1-.563-.543,3.267,3.267,0,0,1-.012-.408c0-1.6,0-3.211,0-4.816a4.686,4.686,0,0,0-3.5-4.656,5.118,5.118,0,0,0-1.331-.162c-1.591-.019-3.183-.007-4.774-.008a3.35,3.35,0,0,1-.448-.018.59.59,0,0,1-.551-.641.561.561,0,0,1,.565-.583c.515-.027,1.033-.016,1.549-.019S926.283,521.144,926.786,521.144Z" fill="#000000" stroke="#000000" stroke-width="1"/>
      <path id="Path_5874" data-name="Path 5874" d="M926.666,550.415c-.9,0-1.8,0-2.693,0-.531,0-.817-.236-.811-.647s.286-.628.826-.629c1.646,0,3.292,0,4.938,0a4.711,4.711,0,0,0,4.841-4.851c.009-1.712.052-3.424.073-5.136,0-.332.125-.555.465-.613a.621.621,0,0,1,.693.5,1.588,1.588,0,0,1,.031.365c0,1.687.017,3.374,0,5.061a5.971,5.971,0,0,1-5.992,5.955C928.244,550.419,927.455,550.415,926.666,550.415Z" fill="#000000" stroke="#000000" stroke-width="1"/>
      <path id="Path_5875" data-name="Path 5875" d="M914.125,549.139c.911,0,1.822,0,2.732,0,.494,0,.774.245.768.647-.006.382-.281.624-.749.626-1.795,0-3.59.035-5.384-.01a5.918,5.918,0,0,1-5.714-5.668c-.039-1.846.052-3.694.092-5.54a.694.694,0,0,1,.59-.669.644.644,0,0,1,.56.686c.006,1.714,0,3.427,0,5.141a4.661,4.661,0,0,0,3.179,4.519,5.9,5.9,0,0,0,1.6.255c.773.041,1.55.011,2.325.011Z" fill="#000000" stroke="#000000" stroke-width="1"/>
      <path id="Path_5876" data-name="Path 5876" d="M920.1,544.889a5.768,5.768,0,0,1-3.434-.981c-.473-.312-.926-.658-1.366-1.014a.638.638,0,0,1-.1-.995c.281-.289.633-.192,1,.086a13.5,13.5,0,0,0,1.94,1.247,5.326,5.326,0,0,0,3.394.214,2.665,2.665,0,0,0,.91-.435q.894-.555,1.757-1.16c.328-.229.566-.122.831.108a.428.428,0,0,1,.065.694,6.005,6.005,0,0,1-2.76,1.872,16.937,16.937,0,0,1-2.235.364Z" fill="#000000" stroke="#000000" stroke-width="1"/>
      <path id="Path_5877" data-name="Path 5877" d="M920.4,538.285a2.429,2.429,0,0,1-2.268-2.908c.223-.994.47-1.982.719-2.969.138-.55.688-.768,1.038-.393a.85.85,0,0,1,.177.654c-.165.839-.374,1.669-.592,2.5-.292,1.113.024,1.63,1.161,1.848a.638.638,0,0,1,.559.685A.684.684,0,0,1,920.4,538.285Z" fill="#000000" stroke="#000000" stroke-width="1"/>
      <path id="Path_5878" data-name="Path 5878" d="M926.914,531.942c0,.163.007.326,0,.488a.815.815,0,0,1-.754.814.8.8,0,0,1-.809-.711,6.634,6.634,0,0,1,0-1.22.754.754,0,0,1,.807-.7.774.774,0,0,1,.756.8C926.921,531.588,926.914,531.765,926.914,531.942Z" fill="#000000" stroke="#000000" stroke-width="1"/>
      <path id="Path_5879" data-name="Path 5879" d="M913.068,531.926c0-.19-.014-.382,0-.57a.788.788,0,0,1,.772-.747.77.77,0,0,1,.8.718,8.186,8.186,0,0,1,.007,1.14.789.789,0,0,1-1.577-.012c-.013-.175,0-.353,0-.529Z" fill="#000000" stroke="#000000" stroke-width="1"/>
    </g>
    <text id="KYC" transform="translate(675.292 176)" fill="white" font-size="26" font-family="Roboto" letter-spacing="0.12em" style="isolation: isolate"><tspan x="0" y="0">KYC</tspan></text>
  </g>
</svg>
